<?xml version="1.0" standalone="no"?>
<!DOCTYPE svg PUBLIC "-//W3C//DTD SVG 20010904//EN"
 "http://www.w3.org/TR/2001/REC-SVG-20010904/DTD/svg10.dtd">
<svg version="1.0" xmlns="http://www.w3.org/2000/svg"
 width="400.000000pt" height="400.000000pt" viewBox="0 0 400.000000 400.000000"
 preserveAspectRatio="xMidYMid meet">
<metadata>
Created by potrace 1.14, written by Peter Selinger 2001-2017
</metadata>
<g transform="translate(0.000000,400.000000) scale(0.100000,-0.100000)"
fill="#000000" stroke="none">
<path d="M2447 3653 c-2 -5 -7 -21 -11 -36 -6 -24 -143 -190 -186 -224 -8 -7
-32 -13 -52 -13 -36 0 -57 -13 -39 -24 12 -8 7 -112 -7 -128 -6 -8 -29 -24
-51 -36 l-41 -23 -12 26 c-17 38 -104 75 -177 75 -33 1 -64 7 -75 15 -11 8
-28 15 -39 15 -10 0 -32 11 -49 25 -29 24 -34 25 -179 25 -142 0 -151 1 -187
25 -20 13 -56 28 -80 34 -42 9 -81 38 -197 145 -27 25 -51 46 -52 46 -2 0 -3
-13 -3 -29 0 -37 40 -85 91 -112 22 -11 39 -26 39 -35 0 -8 -43 -60 -95 -115
-52 -54 -95 -105 -95 -112 0 -36 -151 -246 -217 -301 -37 -31 -142 -67 -172
-59 -39 10 -76 -79 -95 -227 -11 -83 -12 -85 -45 -101 -18 -8 -49 -31 -68 -50
-46 -45 -21 -52 43 -12 65 40 143 79 186 93 53 18 145 -6 276 -71 116 -57 119
-63 103 -155 -7 -39 -8 -71 -1 -93 6 -24 5 -44 -4 -72 -15 -44 -23 -34 73 -87
41 -22 41 -23 41 -81 0 -61 -11 -84 -48 -95 -17 -6 -102 -100 -208 -231 -22
-27 -56 -83 -74 -123 -48 -106 -170 -205 -293 -239 -46 -13 -67 -26 -97 -61
-21 -24 -42 -58 -46 -75 -11 -56 -31 -83 -139 -194 -152 -156 -137 -164 50
-27 108 80 145 130 145 200 0 30 31 39 70 19 34 -17 66 -63 75 -107 4 -16 21
-44 40 -63 29 -31 38 -35 84 -35 57 0 74 17 52 52 -15 24 4 32 64 26 51 -6
103 -40 109 -71 8 -41 48 -222 58 -260 7 -28 14 -37 26 -35 18 4 21 42 7 85
-10 31 22 42 155 55 66 6 116 16 135 27 31 18 165 61 248 80 110 25 218 3 301
-62 81 -63 85 -90 24 -162 -33 -40 -66 -159 -47 -171 15 -9 43 21 83 88 20 33
36 62 36 64 0 3 4 10 10 17 5 7 22 27 36 45 23 28 32 33 58 29 32 -5 200 24
251 43 17 6 39 20 51 31 22 21 49 18 58 -7 3 -7 -3 -18 -14 -24 -41 -22 -18
-50 41 -50 36 0 73 -26 199 -141 52 -47 105 -89 117 -93 11 -4 33 -23 48 -42
15 -19 44 -46 65 -60 21 -14 41 -32 44 -40 6 -16 -26 -88 -45 -99 -12 -8 -49
-90 -49 -111 0 -27 20 -13 69 48 27 35 66 80 85 100 36 38 66 116 66 169 0 36
17 74 52 121 16 20 35 55 43 77 16 48 57 119 100 177 16 23 42 62 57 87 31 52
66 63 91 27 7 -11 31 -27 52 -36 32 -13 42 -13 62 -3 21 11 26 10 51 -13 35
-34 95 -58 142 -58 21 0 52 -8 69 -17 41 -24 49 -10 18 30 -18 24 -40 38 -69
46 -35 9 -50 21 -78 61 -19 27 -39 50 -44 50 -4 0 -27 19 -49 42 -30 30 -49
42 -71 42 -24 1 -32 6 -34 22 -2 11 4 27 13 34 20 16 19 39 -2 62 -21 23 -10
62 58 203 27 55 51 113 55 128 6 28 254 285 329 343 32 24 41 26 90 20 36 -4
56 -2 61 5 11 19 -27 43 -164 107 -18 9 -58 37 -88 64 -30 26 -60 48 -66 48
-6 0 -20 8 -31 18 -15 14 -39 17 -122 18 -56 1 -112 5 -123 8 -23 8 -38 43
-45 102 -3 24 -17 59 -36 85 -18 24 -31 52 -30 64 3 37 -1 40 -51 43 -28 1
-62 7 -75 12 -23 9 -25 14 -25 78 0 38 6 90 14 115 14 46 65 133 113 190 16
20 21 36 17 52 -4 15 1 34 13 52 18 27 54 111 68 161 8 28 -13 29 -48 2 -14
-11 -38 -20 -54 -20 -15 -1 -55 -8 -88 -17 -33 -8 -80 -18 -105 -20 -25 -3
-49 -9 -55 -13 -5 -4 -32 -2 -60 6 -27 7 -58 11 -68 8 -25 -8 -81 13 -103 38
l-19 20 53 -7 c31 -4 52 -3 52 3 0 14 -35 42 -53 42 -31 0 -125 60 -146 93
-22 35 -38 59 -83 124 -15 23 -37 75 -47 115 -16 66 -45 138 -56 138 -2 0 -6
-3 -8 -7z m107 -297 c14 -19 31 -45 36 -58 6 -13 19 -36 29 -53 11 -16 20 -36
20 -42 2 -22 -19 -14 -28 10 -5 13 -16 29 -25 36 -19 16 -76 113 -76 130 0 20
17 11 44 -23z m-135 -111 c28 -27 -12 -85 -58 -85 -16 0 -34 -7 -41 -15 -11
-13 -9 -20 10 -40 13 -14 21 -27 19 -29 -4 -5 -66 -20 -121 -31 -24 -5 -26 -8
-21 -47 3 -24 8 -45 10 -47 2 -3 16 11 32 30 39 47 114 86 190 98 131 21 169
-10 197 -162 6 -33 4 -39 -15 -44 -33 -8 -44 -106 -25 -218 17 -97 18 -174 3
-265 -11 -66 -11 -71 13 -112 37 -63 42 -112 20 -178 -11 -32 -16 -65 -12 -80
4 -14 3 -38 -2 -55 -19 -68 -41 -206 -48 -305 -9 -126 -38 -218 -104 -324 -32
-51 -55 -77 -74 -84 -24 -8 -38 -30 -88 -142 -32 -73 -71 -146 -86 -162 l-28
-30 -117 4 c-182 5 -185 7 -283 219 -30 66 -47 91 -73 106 -31 19 -85 99 -134
198 -30 61 -55 200 -69 380 -3 44 -12 98 -19 120 -7 22 -10 54 -8 72 3 18 -3
52 -12 77 -22 58 -16 115 19 189 l26 56 -14 104 c-13 90 -13 111 -1 163 8 32
14 97 15 143 0 74 -3 88 -22 109 -19 20 -23 33 -20 84 4 92 38 140 112 155 62
12 238 -66 274 -123 21 -31 36 -31 36 1 0 15 7 39 15 55 15 30 15 30 -22 45
-21 9 -47 25 -58 35 -11 10 -36 26 -55 34 -38 15 -84 59 -79 73 5 12 193 -22
291 -53 42 -13 86 -24 98 -24 28 0 139 56 171 87 44 41 123 50 158 18z m101
-16 c7 -11 10 -23 7 -25 -6 -6 -37 25 -37 37 0 17 19 9 30 -12z m-1150 -131
c19 -197 9 -349 -30 -468 -30 -88 -32 -102 -26 -192 4 -73 2 -98 -7 -98 -7 0
-35 23 -64 51 l-52 50 19 37 c38 69 18 136 -66 222 -37 39 -42 48 -31 60 8 8
22 60 32 115 18 100 27 128 69 220 24 51 119 150 135 141 5 -3 14 -65 21 -138z
m1444 -209 c15 -16 38 -54 51 -84 12 -30 34 -64 48 -76 15 -11 27 -24 27 -29
0 -5 -13 -29 -30 -53 -35 -52 -41 -127 -14 -179 l16 -30 -49 -44 c-57 -51 -78
-56 -69 -16 16 65 17 129 1 182 -9 30 -20 71 -24 90 -5 19 -16 53 -26 75 -14
33 -16 55 -10 130 4 49 9 94 13 99 3 5 13 -1 21 -14 9 -12 29 -36 45 -51z
m-1704 -219 c95 -48 107 -169 23 -232 -56 -43 -94 -38 -155 20 -42 41 -51 55
-55 92 -5 55 22 104 70 125 44 20 71 18 117 -5z m1918 -101 c-2 -100 -2 -102
25 -123 15 -12 27 -25 27 -29 0 -15 -64 -6 -97 14 -44 27 -63 66 -63 127 0 41
5 55 29 81 18 19 39 31 55 31 l26 0 -2 -101z m-1811 -221 c97 -122 152 -204
156 -233 9 -63 -15 -74 -83 -40 -57 29 -96 34 -82 10 4 -9 36 -44 70 -78 73
-75 72 -96 -4 -71 -132 44 -139 48 -140 79 0 17 -9 64 -18 105 -10 41 -22 111
-27 155 l-9 80 27 22 c43 35 63 29 110 -29z m1763 21 c6 -10 6 -20 1 -23 -5
-3 -12 -52 -16 -108 -6 -84 -4 -108 9 -133 9 -16 16 -36 16 -42 0 -7 9 -18 20
-25 44 -28 29 -36 -163 -92 -32 -10 -61 -15 -64 -12 -3 3 24 37 61 77 36 39
66 78 66 85 0 21 -33 17 -88 -11 -66 -33 -82 -32 -82 3 1 47 48 126 153 253
48 60 67 66 87 28z m300 -234 c0 -14 -9 -39 -19 -56 l-20 -32 -6 37 c-5 26 -3
43 9 61 19 30 36 25 36 -10z m-1893 -153 c3 -9 13 -25 21 -34 8 -9 12 -22 10
-29 -4 -13 -78 76 -78 93 0 14 41 -12 47 -30z m1673 -88 c0 -3 -9 -17 -20 -31
-24 -31 -25 -51 -4 -74 14 -16 14 -18 -3 -28 -23 -12 -215 -2 -211 11 2 6 33
26 68 45 36 20 83 47 105 59 39 23 65 30 65 18z m-1860 -61 c52 -28 93 -57 99
-70 6 -14 20 -23 32 -23 30 0 139 -62 139 -79 0 -11 -12 -13 -62 -7 -34 3 -65
11 -69 18 -4 7 -21 9 -44 5 -25 -4 -48 -1 -69 10 l-31 16 33 9 c17 5 32 15 32
23 0 21 -46 30 -87 17 -47 -15 -119 6 -116 34 3 37 28 94 41 94 7 0 53 -21
102 -47z m1604 -113 c17 -5 45 -13 61 -16 25 -6 17 -9 -50 -20 -44 -7 -97 -15
-117 -19 -26 -5 -38 -4 -38 4 0 14 70 60 94 60 11 1 33 -3 50 -9z m-1639 -52
c41 -18 75 -36 75 -40 0 -18 -41 -26 -130 -24 -89 1 -95 2 -92 21 2 11 5 32 7
48 1 15 3 30 4 33 2 11 58 -4 136 -38z m1885 13 c0 -5 -6 -11 -12 -14 -10 -3
-10 -9 0 -26 10 -18 10 -22 -1 -27 -23 -9 -140 0 -144 11 -1 6 28 22 65 37 73
29 92 33 92 19z m-1729 -34 c-11 -11 -41 -3 -41 11 0 5 12 7 26 4 17 -3 22 -8
15 -15z m2099 -127 c0 -12 -26 -55 -48 -82 -12 -14 -18 -15 -29 -7 -23 20 -14
48 24 74 41 27 53 31 53 15z m-2160 -55 c8 -10 30 -15 64 -15 71 0 156 -11
156 -20 0 -4 -33 -23 -73 -43 -69 -32 -78 -34 -150 -29 -42 2 -77 8 -77 13 0
12 42 39 62 39 10 0 18 7 18 15 0 19 -19 19 -44 0 -11 -8 -30 -15 -42 -15 -12
0 -27 -7 -34 -15 -25 -30 -67 -17 -61 19 1 5 -7 19 -19 31 -11 12 -17 25 -13
28 3 4 50 7 103 7 75 0 100 -4 110 -15z m1735 9 c14 -6 14 -8 -1 -25 -14 -15
-15 -22 -6 -31 7 -7 12 -16 12 -20 0 -10 -34 -11 -44 -1 -4 4 -33 17 -64 28
-88 31 -78 39 70 53 9 1 24 -1 33 -4z m-207 -30 c12 -4 22 -13 22 -21 0 -11
-16 -13 -82 -11 -93 3 -122 24 -41 31 26 2 55 4 63 5 8 1 25 -1 38 -4z m-1528
-144 c0 -11 -73 -46 -106 -52 -11 -2 -20 6 -25 24 -4 15 -4 29 -1 32 10 11
132 6 132 -4z m1698 -6 c24 -5 31 -12 34 -35 3 -16 1 -29 -3 -29 -20 0 -119
50 -119 59 0 12 41 14 88 5z m-1398 -83 c0 -18 -62 -61 -87 -61 -14 0 -41 -9
-59 -21 -33 -20 -34 -20 -34 -1 0 28 27 48 100 70 76 24 80 25 80 13z m1071
-11 c27 -8 56 -32 108 -91 40 -45 70 -83 67 -86 -9 -9 -80 40 -121 83 -22 23
-59 52 -82 63 -69 34 -51 53 28 31z m166 -44 c21 -8 54 -17 73 -20 38 -6 80
-31 80 -46 0 -5 -11 -12 -25 -16 -23 -6 -25 -10 -19 -40 8 -46 -6 -43 -53 8
-21 23 -53 56 -70 73 -18 17 -33 37 -33 43 0 15 2 15 47 -2z m-1481 -22 c-22
-16 -36 -18 -36 -6 0 11 43 32 50 25 3 -3 -4 -11 -14 -19z m414 -89 c0 -8 -7
-15 -16 -15 -14 0 -14 3 -4 15 7 8 14 15 16 15 2 0 4 -7 4 -15z m714 -33 c21
-15 44 -35 50 -44 17 -27 -2 -34 -27 -10 -13 12 -30 22 -39 22 -9 0 -21 14
-27 30 -12 37 -7 37 43 2z m366 -54 c38 -19 42 -23 23 -26 -13 -2 -23 -10 -23
-18 0 -23 -12 -17 -62 33 -57 56 -65 85 -15 55 17 -11 52 -31 77 -44z m-190
-83 l44 -45 -29 0 c-22 0 -37 9 -56 33 -40 50 -42 57 -22 57 11 0 39 -20 63
-45z"/>
<path d="M2506 2856 c-3 -32 -13 -73 -21 -93 -8 -19 -15 -44 -15 -55 0 -35
-41 -100 -126 -196 -46 -53 -84 -99 -84 -103 0 -4 -16 -17 -36 -29 -27 -17
-44 -21 -74 -16 -34 5 -38 4 -33 -13 3 -12 -3 -24 -17 -34 -26 -18 -19 -37 14
-37 33 0 38 -10 21 -37 -24 -35 4 -40 52 -9 33 22 48 25 123 24 100 -1 129
-16 153 -77 17 -42 37 -62 37 -37 0 8 -9 38 -20 65 -19 50 -19 51 0 61 10 5
28 10 39 10 27 0 30 16 32 160 2 92 -2 137 -14 169 -12 33 -14 68 -10 150 6
123 -9 195 -21 97z m-96 -473 c3 -3 -8 -16 -23 -29 -22 -18 -40 -24 -78 -24
-27 0 -49 4 -49 8 0 13 32 40 60 50 23 9 78 6 90 -5z"/>
<path d="M1576 2856 c-4 -26 -2 -80 4 -122 10 -64 9 -81 -6 -119 -14 -37 -15
-62 -10 -145 5 -68 4 -111 -4 -136 -14 -42 -5 -54 43 -54 37 0 43 -22 24 -83
-9 -28 -15 -52 -13 -54 2 -2 20 24 40 57 21 33 40 61 44 61 4 1 34 3 67 5 70
3 128 -10 167 -38 33 -23 53 -16 38 13 -15 26 -5 39 30 39 37 0 47 16 19 30
-17 10 -20 18 -15 42 5 28 4 30 -17 23 -84 -26 -95 -20 -209 118 -99 120 -147
212 -169 327 -16 84 -25 93 -33 36z m241 -482 c24 -14 41 -29 38 -35 -4 -5
-30 -9 -60 -9 -44 0 -59 5 -86 27 l-32 28 24 6 c45 13 72 9 116 -17z"/>
<path d="M2166 2859 c-58 -58 -160 -61 -222 -7 -19 17 -34 25 -34 18 0 -13
133 -150 145 -150 4 0 16 11 27 25 11 14 39 38 63 55 24 17 47 43 53 60 13 37
6 36 -32 -1z"/>
<path d="M1865 2125 c-22 -14 -47 -25 -55 -25 -8 0 -31 -8 -50 -18 -19 -10
-64 -29 -100 -42 -36 -13 -67 -25 -69 -27 -2 -2 2 -14 9 -28 13 -24 35 -33 42
-17 7 16 96 70 141 85 54 18 72 15 82 -16 6 -22 6 -22 15 -2 5 11 11 32 14 47
3 15 15 30 26 33 25 8 27 35 3 35 -10 0 -36 -12 -58 -25z"/>
<path d="M2187 2144 c-3 -3 3 -20 14 -37 10 -18 19 -44 19 -59 0 -35 17 -36
30 -3 5 14 16 25 24 25 21 0 89 -30 111 -49 11 -10 39 -26 62 -36 35 -14 45
-15 58 -5 28 23 16 37 -52 60 -38 12 -109 42 -158 66 -96 47 -98 47 -108 38z"/>
<path d="M1912 1960 c4 -26 2 -30 -20 -30 -21 0 -23 -3 -17 -30 6 -28 5 -30
-26 -30 -18 0 -65 18 -109 41 -90 48 -125 49 -94 1 10 -15 23 -49 30 -77 69
-270 97 -337 177 -418 64 -66 142 -107 204 -107 122 0 267 138 314 299 11 36
28 96 39 132 11 36 20 74 20 84 0 10 10 37 22 62 35 69 16 75 -86 25 -46 -23
-96 -42 -111 -42 -24 0 -26 3 -20 29 5 24 2 32 -14 41 -12 6 -21 17 -21 25 0
24 -16 25 -51 1 -31 -21 -41 -23 -104 -17 -41 4 -80 14 -95 24 -35 24 -43 21
-38 -13z m428 -142 c-1 -7 -7 -35 -14 -63 -10 -37 -18 -50 -32 -50 -20 0 -31
-29 -33 -86 -1 -20 -8 -42 -16 -49 -12 -10 -16 -8 -25 15 -9 24 -14 26 -43 20
-17 -4 -39 -13 -48 -21 -39 -35 -79 -6 -79 57 0 18 -3 29 -7 25 -5 -4 -8 -27
-8 -49 0 -35 -3 -42 -22 -45 -13 -2 -27 5 -36 18 -22 31 -79 25 -87 -10 -8
-33 -60 -43 -60 -11 0 11 5 23 10 26 12 7 13 55 1 73 -4 8 -16 12 -26 10 -15
-2 -20 8 -31 57 -19 87 -20 84 36 82 43 -2 53 -6 63 -26 7 -15 26 -28 45 -33
17 -5 32 -13 32 -18 0 -6 15 -10 34 -10 26 0 36 -5 41 -21 l7 -21 22 21 c12
12 34 21 49 21 14 0 28 4 32 9 3 5 19 12 36 16 18 4 35 16 41 31 6 13 15 24
20 24 4 0 11 1 15 3 3 1 12 -14 18 -33 l13 -35 11 28 c6 16 11 35 11 43 0 8 7
14 15 14 8 0 15 -6 15 -12z m-376 -283 c7 -20 -4 -47 -18 -42 -17 6 -20 57 -3
57 8 0 17 -7 21 -15z m196 -21 c0 -8 -5 -12 -10 -9 -6 4 -8 11 -5 16 9 14 15
11 15 -7z m-132 -37 c2 -19 -1 -27 -12 -27 -17 0 -31 34 -21 50 11 18 30 5 33
-23z m77 -2 c0 -10 -6 -20 -12 -22 -8 -3 -13 5 -13 22 0 17 5 25 13 23 6 -3
12 -13 12 -23z m105 -40 c0 -5 -56 -35 -66 -35 -4 0 1 9 11 20 16 17 55 28 55
15z m-204 -40 c18 -15 18 -15 -5 -13 -14 2 -26 9 -29 16 -5 17 10 15 34 -3z
m119 -5 c-3 -5 -21 -10 -38 -9 -31 1 -31 1 -7 9 36 11 52 11 45 0z"/>
<path d="M3400 1290 c0 -5 5 -10 10 -10 6 0 10 5 10 10 0 6 -4 10 -10 10 -5 0
-10 -4 -10 -10z"/>
</g>
</svg>
